{"title":"WWE.Royal.Rumble.2016.01.24.HDTV.XviD-FICEK9","uid":13456931,"size":1565633924,"categoryP":"video","categoryS":"tv_shows","magnet":"?xt=urn:btih:6426c3a1cc485a1f11e9d5bd96ae02d0f8e80d43&amp;dn=WWE.Royal.Rumble.2016.01.24.HDTV.XviD-FICEK9&amp;tr=udp%3A%2F%2Ftracker.leechers-paradise.org%3A6969&amp;tr=udp%3A%2F%2Fzer0day.ch%3A1337&amp;tr=udp%3A%2F%2Fopen.demonii.com%3A1337&amp;tr=udp%3A%2F%2Ftracker.coppersurfer.tk%3A6969&amp;tr=udp%3A%2F%2Fexodus.desync.com%3A6969","seeders":0,"leechers":1,"uploader":"FICEK9","files":2,"time":1454852625,"description":"\n   General\r\n      Complete name : WWE.Royal.Rumble.2016.01.24.HDTV.XviD-FICEK9.avi\r\n      Format : AVI\r\n      Format/Info : Audio Video Interleave\r\n      Format profile : OpenDML\r\n      File size : 1.46 GiB\r\n      Duration : 2h 59mn\r\n      Overall bit rate mode : Variable\r\n      Overall bit rate : 1 161 Kbps\r\n      Writing application : MEncoder SVN-r33883(20110719-gcc4.5.2)\r\n      Writing library : MPlayer\r\n   Video #0\r\n      ID : 0\r\n      Format : MPEG-4 Visual\r\n      Format profile : Advanced   \r\n      Format settings, BVOP : 2\r\n      Format settings, QPel : No\r\n      Format settings, GMC : No warppoints\r\n      Format settings, Matrix : Default (H.263)\r\n      Codec ID : XVID\r\n      Codec ID/Hint : XviD\r\n      Duration : 2h 59mn\r\n      Bit rate : 1 024 Kbps\r\n      Width : 624 pixels\r\n      Height : 352 pixels\r\n      Display aspect ratio : 16:9\r\n      Frame rate : 29.970 fps\r\n      Color space : YUV\r\n      Chroma subsampling : 4:2:0\r\n      Bit depth : 8 bits\r\n      Scan type : Progressive\r\n      Compression mode : Lossy\r\n      Bits/(Pixel*Frame) : 0.156\r\n      Stream size : 1.29 GiB (88%)\r\n      Writing library : XviD 1.2.1 (UTC 2008-12-04)\r\n   Audio #1\r\n      ID : 1\r\n      Format : MPEG Audio\r\n      Format version : Version 1\r\n      Format profile : Layer 3\r\n      Mode : Joint stereo\r\n      Mode extension : MS Stereo\r\n      Codec ID : 55\r\n      Codec ID/Hint : MP3\r\n      Duration : 2h 59mn\r\n      Bit rate mode : Variable\r\n      Bit rate : 122 Kbps\r\n      Channel(s) : 2 channels\r\n      Sampling rate : 48.0 KHz\r\n      Compression mode : Lossy\r\n      Stream size : 156 MiB (10%)\r\n      Alignment : Aligned on interleaves\r\n      Interleave, duration : 24 ms (0.72 video frame)\r\n      Interleave, preload duration : 145 ms\r\n      Writing library : LAME3.98","torrent":{"xt":"urn:btih:6426c3a1cc485a1f11e9d5bd96ae02d0f8e80d43","amp;dn":"WWE.Royal.Rumble.2016.01.24.HDTV.XviD-FICEK9","amp;tr":["udp%3A%2F%2Ftracker.leechers-paradise.org%3A6969","udp%3A%2F%2Fzer0day.ch%3A1337","udp%3A%2F%2Fopen.demonii.com%3A1337","udp%3A%2F%2Ftracker.coppersurfer.tk%3A6969","udp%3A%2F%2Fexodus.desync.com%3A6969"],"infoHash":"6426c3a1cc485a1f11e9d5bd96ae02d0f8e80d43","infoHashBuffer":{"type":"Buffer","data":[100,38,195,161,204,72,90,31,17,233,213,189,150,174,2,208,248,232,13,67]},"announce":[],"urlList":[]}}